<?xml version="1.0" encoding="utf-8"?>
<!-- Generator: Adobe Illustrator 23.0.1, SVG Export Plug-In . SVG Version: 6.00 Build 0)  -->
<svg version="1.1" id="Capa_1" xmlns="http://www.w3.org/2000/svg" xmlns:xlink="http://www.w3.org/1999/xlink" x="0px" y="0px"
	 viewBox="0 0 519.38 250" style="enable-background:new 0 0 519.38 250;" xml:space="preserve">
<style type="text/css">
	.st0{fill:none;stroke:#000000;stroke-miterlimit:10;}
</style>
<g>
	<path d="M40.77,152.82c12.83,0.94,24.72-39.12,33.8-39.12c6.26,0,4.69,9.7,4.69,13.46c0,7.82-1.56,35.68,1.88,43.81
		c6.89-5.32,14.71-30.04,16.27-37.55c0-6.57,10.01-6.57,10.01-0.31c-1.56,12.21-11.27,41.31-22.85,47.26
		c-15.65,8.14-16.59-22.85-15.65-43.5C60.8,150,50.16,165.65,37.95,162.21c-30.98-6.26-9.7-61.97,35.05-65.72
		c6.57,0,6.57,10.01,0,10.01C37.33,109.94,23.24,151.88,40.77,152.82z"/>
	<path d="M110.56,116.2c-10.01-10.01-5.63-24.41,5.63-28.48c12.52-3.44,14.4,11.89,8.45,25.66c8.76,3.44,29.1-0.31,25.66,13.14
		c-1.88,7.82-7.2,54.77-7.2,68.22c8.45-11.89,28.79-49.45,29.73-64.47c0-6.57,10.01-6.57,10.01,0
		c-1.25,15.96-32.23,91.38-47.88,74.48c-6.26-6.26,1.56-65.72,5.32-78.87c-7.82-1.25-13.46-0.63-21.28-4.07
		c-2.5,2.5-9.7,12.52-13.14,14.08c-2.5,0.94-5.01-0.94-5.95-3.76c-0.94-2.5,0.63-5.01,3.44-5.95
		C103.67,126.22,109.93,116.83,110.56,116.2z M118.38,97.74c-2.82,1.25-4.69,5.63-2.19,9.7C117.75,103.68,119.32,99.93,118.38,97.74
		z"/>
	<path d="M216.02,105.25c1.56-11.58,5.32-53.83,16.59-55.39c28.17-5.01-5.01,85.12-10.01,97.96c0,6.57-0.63,31.92,4.07,36.62
		c6.57,3.76,18.78-49.76,20.97-54.45c2.5-5.95,11.27-1.25,8.76,4.38c-3.44,12.52-13.77,66.66-33.49,59.15
		c-7.2-2.82-9.39-16.59-10.33-34.11C153.12,212.28,162.5,71.76,216.02,105.25z M212.89,144.99c0.31-9.7,0.94-19.09,2.19-28.17
		C178.47,80.21,164.38,203.52,212.89,144.99z M234.17,62.69c-3.44,7.51-6.26,30.98-7.2,39.75C231.67,86.47,235.11,70.2,234.17,62.69
		z"/>
	<path d="M277.67,127.16c-8.45-9.7-18.46-4.07-21.28,8.45c-10.01,44.13,37.55,23.47,46.63-4.69c1.88-6.88,10.64-4.07,9.7,1.88
		c-11.27,38.81-67.6,55.71-67.6,12.52c0-41.94,39.12-38.49,44.13-16.9c3.44,16.27-15.65,18.78-26.91,18.78
		c-6.57,0-6.57-10.01,0-10.01C266.4,137.17,286.12,136.23,277.67,127.16z"/>
	<path d="M313.97,131.54c5.01-19.09,12.52-41.31,21.59-41.31c9.7,0,12.21,17.53,13.77,38.18c5.01-19.4,11.89-34.74,22.53-25.04
		c10.64,10.01,6.57,53.2,12.52,68.22c7.51-8.45,14.71-29.42,16.27-39.43c0-6.57,10.01-6.57,10.01,0
		c-1.56,11.89-12.52,45.07-23.78,50.07c-20.97,8.45-13.46-59.15-21.28-71.04c-4.07,6.57-8.45,28.17-9.39,34.11
		c-1.57,6.26-4.07,34.11-4.69,36.3c-1.88,5.32-9.39,5.32-10.33-2.5c-2.5-16.59,0.63-61.65-5.95-77.3
		c-6.57,9.08-14.4,42.56-15.96,50.39c-0.94,3.76-1.88,15.65-9.08,12.52c-7.51-3.44-6.57-41.94-6.57-50.39c0-6.57,10.01-6.57,10.01,0
		C313.66,118.08,313.66,124.34,313.97,131.54z"/>
	<path d="M414.74,71.14c4.07,0,8.14,0.31,11.89,0.31c6.57,0,6.57,10.01,0,10.01c-4.07-0.31-8.14-0.31-12.83-0.31
		c-2.5,31.92-3.76,93.57,5.01,99.21c5.01,3.44,19.4-17.84,20.03-18.78c5.32-9.7,8.14-18.15,9.08-29.1c0-6.57,10.01-6.57,10.01,0
		c-0.94,14.08-19.72,65.41-42.56,59.46c-16.59-4.07-15.33-74.48-11.89-110.79c-9.08,0-41.62-0.31-49.45,0.63
		c-6.26,1.56-9.7-7.82-3.13-9.39c8.45-0.94,42.56-1.25,53.52-1.25c0.94-9.7,2.19-17.21,3.13-21.28c1.88-6.26,11.27-3.13,9.39,3.13
		C415.99,56.43,415.68,62.69,414.74,71.14z"/>
	<path d="M459.8,165.65c7.51-0.94,23.47-30.04,25.98-35.05c2.5-5.63,11.89-2.19,9.39,3.75c-5.63,11.58-17.84,35.36-31.3,40.37
		c-22.85,8.76-15.96-42.88-14.71-52.89c0.94-6.26,10.64-4.69,9.7,1.25C457.92,129.66,454.79,160.64,459.8,165.65z M456.99,95.55
		c6.88,2.5,2.82,14.4-2.5,14.4C446.03,109.94,449.47,93.98,456.99,95.55z"/>
</g>
<path class="st0" d="M116.02,275.48"/>
<g>
</g>
<g>
</g>
<g>
</g>
<g>
</g>
<g>
</g>
<g>
</g>
</svg>
